<svg xmlns="http://www.w3.org/2000/svg" viewBox="-3.907 25.388 32.55 44.66" xmlns:v="https://vecta.io/nano"><path d="M15.08 34.12v-.04c-.04 0-.04.04 0 .04-.16.44-.6.56-.76.96-.2-.04.04-.16.04-.28-.24-.16-.4.12-.44.28-1.08.84-1.92 1.96-3.12 2.72-.16.32-.56.44-.8.64-.08.04-.08.16-.12.24-.24-.16-.24.24-.4.32 0-.04-.04-.08-.08-.08-.08.04 0 .08.08.08-.16.2-.28.24-.48.28-.48.64-1.44 1.08-2 1.68-.12.08-.2.2-.32.28-.12.16.16.16.16.32-.2 0-.2-.16-.32-.24-.12 0 .04.24-.12.16 0-.04.04-.04.04-.08-.4.12-.52.72-1.16.8.24.08-.12.32-.28.28 0 .08.04.12.08.16-.04.08-.2-.04-.08.12-.28-.08-.24.16-.4.2 0-.08.04-.08.08-.12-.2 0-.16.16-.12.28-.12 0-.16 0-.24-.04-.08.12.04.16-.04.28a2.62 2.62 0 0 0 .72-.6c.08 0 .12.04.16.08-.04.2-.32.12-.36.32.16.04.16.12.04.24.52-.12.76-.72 1.32-.8 0 .04.04-.04 0 0v-.2c.16.04.28-.24.32 0 .08-.12.16-.24.2-.4.2.12.36.08.48-.12-.2-.08-.16.12-.28.08.12-.16.24-.32.48-.32 0 .04.04-.04 0 0 .04-.16.2-.28.36-.2 0-.32.76-.4.8-.88.04 0 .04.08.04.16.16-.16.36-.24.52-.4-.04-.12-.12.08-.24.04.12-.2.28-.32.64-.32-.12-.28.6-.92.88-.8.4-.76 1.24-1.04 1.76-1.68-.04.04 0 .08.04.08.04-.04.04-.08-.04-.08.12-.24.36-.12.32-.4a.18.18 0 0 1 .2 0c.04-.12 0-.08.04-.24.36-.24.76-.44.88-.92.28.16.6-.44.84-.68.16-.08.28-.28.44-.4-.2-.16.48-.84.76-1.12 0 .16-.12.16-.08.28h-.04c0 .08.04.04.04 0h.08c-.52 1-1.16 1.92-2.04 2.64-3.48 3.68-8.16 6.96-12.24 10.44 2.08.84 4.08 2.36 4.64 4.32.48.56.72 1.72.76 2.28.04.16.12.08.16.16-.12.08-.04.76.04.92 0 .28-.12.8.04 1-.04.4 0 .6-.12.96.16.8-.24 1.84-.32 2.84C5.28 63.6 4 68.4-.08 70c-.08-.04-.24.04-.24-.04-.16-.04-.12.12-.28.08-1.08-.36-1.8-1.04-2.32-1.96-1.4-2.56-1.04-6.16-.56-9.24.4-2.84 1.08-5.84 1.76-7.96h.08c0-.04-.08-.04-.08 0 0-.28.24-1.44.48-1.48-.12-.28.08-.56.16-.8-.84.12-1.32-.64-1.6-1.32.04 0 .04-.08.04-.12 1.04-.72 2.52-.92 2.84-2.24-.04-.48.24-.56.28-1.04.12-.04.16-.12.24-.2-.28.04-.04-.24.12-.36.04-.08.24-.36.04-.36.16-.24.08-.76.48-1-.04-.08-.16-.16 0-.2 0 .08.04 0 0 0-.12-.2.12-.44.2-.68h.04c-.04.08.04.12.08.12.04-.08-.04-.08-.08-.12.36-.68.52-1.36.8-2.16.16.04.12.04.2-.04 0-.04-.08-.04-.16-.04.12-.32.32-.52.36-.92.08 0 .12.04.08.16.16-.12-.08-.24.04-.48.08-.08.28-.04.24-.2-.12 0-.12-.04-.04-.24-1 1.24-1.76 2.72-3.4 3.32-.24-.04-.4-.24-.68-.24-.24-.28-.4-.64-.72-.84-.48-2.64.72-5.4 2.04-7.24 1.28-.04 2.16.72 2.48 1.8-.52.32-.84-.24-1.16-.48-1.4 1.04-1.88 3.28-2.2 5.2 1.08-.72 1.8-1.84 2.48-2.96h.24c.04-.16-.16-.04-.08-.24.16-.04.08-.04.24 0-.12-.32.16-.64.48-.72-.2-.24.08-.36.28-.44-.12-.32.32-.8.68-.96-.24-.16.28-.2.24-.48.16-.04.2.04.32-.08-.32-.04.12-.44.36-.36 0-.04-.08-.04-.16-.04.68-.32 1.44-2.12 2.32-2.04.48.04.52.48.92.72-1.08 1.52-1.8 3.4-2.72 5.08C4.76 37.6 4 38.64 3.6 40.08c-.04.04-.16.04-.24.12-.08.72-.48 1.8-1 2.64 0 .04.08.04.16.04-.2.32-.24.76-.44.96 0 .04.04.04.04.12.12 0 .16-.08.24-.12.12.04-.08.12 0 .24C7.04 40.32 12 36.92 15.6 32.12c.16.4.08 1.04-.2 1.28.08.08 0 .28.2.2-.16.2-.32.4-.52.52zM4.92 32.84H5v-.08h-.08v.08zm-.12.2c-.12.16.16-.12 0 0h0zm-.32.2v.08c.12.08.12-.16.04-.16 0 .04 0 .08-.04.08zm.08.28c.04-.04.2-.16.04-.2 0 .08-.2.16-.04.2zm-.12.04c-.04-.08 0-.16.04-.2-.16 0-.28.2-.04.2zm-.24.08c0 .04-.04 0 0 0h0zm11.08.2c0 .04-.04 0 0 0h0zm-11.2.04a.48.48 0 0 0-.32.48c.08 0 .16.04.2-.04-.2-.2.08-.28.12-.44.08 0 0-.04 0 0zm10.72.24c.12.04.2 0 .2-.12-.12 0-.16.08-.2.12zm-.44.56c.16-.04.44-.4.24-.44-.04.2-.2.24-.24.44zm-10.72-.16c0-.04 0-.04.08-.04-.04-.08-.04-.12-.12-.12 0 .08 0 .16.04.16zm-.08.2c.2.04 0-.16 0 0h0zm-.44.44c-.08 0-.24.16-.08.24 0-.12.12-.12.08-.24.2-.04 0-.24 0 0zm.36 2.2h.08v-.12h-.08v.12zm7.56.24c.04.04 0-.04 0 0h0zm.84.36c0 .04-.04 0 0 0h0zm-8.76.12c.04.04 0-.04 0 0h0zm-.48.52c-.08.24.12-.24 0 0h0zm.24.16c-.12.16.16-.12 0 0h0zm-.28.6c.12-.04.2-.16.24-.28-.2 0-.16.2-.24.28zm-.24 0c-.12.16.16-.12 0 0h0zm.2.28c0-.04.08-.08 0-.12 0 .04-.08.12 0 .12zm7.28.08h.12c0-.08.04-.08.04-.16h-.16v.16zm-7.52.24a.36.36 0 0 0 .24-.24c-.16-.04-.16.16-.24.24zm7.28 0c0-.08.08-.12 0-.16 0 .04-.08.12 0 .16zm-7.4.32c.12 0 .12-.12.16-.2-.12 0-.12.12-.16.2zm.6-.08c.04.16.12-.2 0 0h0zm-.04.36c-.08 0-.12-.08-.2-.04-.08.12.2.12.2.04zm-.64.16c0-.08.08-.12 0-.16 0 .08-.08.12 0 .16zm-.16.12c.2.08.04-.12 0 0h0zm.48.08c.08.16.08-.2 0 0h0zm-.04.16c.08.16.12-.16 0 0h0zm-.52.16c.04.2.04-.2 0 0h0zm.68 0c0 .04-.04-.04 0 0h0zm-.12.2h.12v-.12h-.12v.12zm-1.04.2c.04.16.04-.2 0 0h0zm1.2 0c.04.16.04-.2 0 0h0zm-.96.12h.08v-.08h-.08v.08zm-.04.12c.04.16.04-.2 0 0h0zm-.4.36c.04.04 0 0 0 0h0zm-.08.2c.2.04 0-.16 0 0h0zm.24 0v.08h.08s0-.04.04-.04v-.08H1.4c0 .04 0 .04-.04.04zm.36.2c.12 0 .16-.04.16-.16-.12-.04-.08.12-.16.16zm-.56.52c-.04-.12.08-.12.04-.24-.2-.04-.16.2-.04.24zm-.16.08c.2.08.04-.12 0 0h0zm.6 0c0 .04-.04 0 0 0h0zm2.2.36c.12-.04.12.04.24.04 0-.16.28-.32.16-.44-.12.16-.28.28-.4.4zm.4-.16c.04.16.36.08.16.36.2 0 .16-.16.32-.2-.04-.16-.16-.12-.08-.28-.16 0-.16.2-.4.12zm-3.24.16c0-.04 0-.08.04-.04 0-.08 0-.12-.08-.12 0 .08 0 .16.04.16zm.44-.12c.04.04-.04 0 0 0h0zm-.52.24c.12.2.04-.16 0 0h0zm2.76.64c.28 0 .24-.36.48-.24.08-.12.16-.24.2-.4-.2.04-.52.4-.68.64zM4 43.8c-.16.04-.16.04-.28 0-.04.2.28.12.28 0zm-3.16.08c.08.2.04-.16 0 0h0zm2.52 0c.08.16.12-.2 0 0h0zm-1.56.2c0-.08-.04-.12-.12-.16-.08.08-.08.2.12.16zm-1.28 0c.08.2.08-.2 0 0h0zm.2.04c.08 0 .12-.04.16-.08-.08 0-.12.04-.16.08zm1.44-.04c.08.2.08-.2 0 0h0zm1.36 0c.08.16.12-.16 0 0-.04-.08-.08 0 0 0zm-2.12.08c.2.04 0-.12 0 0h0zm-.48.04c.04.04-.04 0 0 0h0zm1.12 0c0 .04-.04 0 0 0h0zm1.44-.04h-.24c-.08.2.28.2.24 0zm-2.4.24c.08.04.24-.12.12-.2 0 .16-.2.04-.12.2zm-.4-.12c-.16.2.28.04 0 0h0zm2.8.24c-.12.16.16-.12 0 0h0zm-2.84.04c-.12.16.16-.12 0 0h0zm.6 0c.04.04 0-.04 0 0h0zm2 .2c0-.12.2-.04.16-.16-.12-.04-.32.08-.16.16zm-2.88.56c0-.08.04-.08.12-.08-.16-.2.12-.4 0-.56-.04.2-.24.48-.12.64zm.8-.48c.08.16.12-.2 0 0h0zm-2.4 9.44c-.12.04-.2.08-.2.2.16.04.12-.12.2-.2.04 0 .04-.08.08-.08.04.32-.16.4-.24.68.08.12.16-.08.2.04-.08.32-.32.44-.36.76.08.04.08.16.12.24-.12 0-.04.2-.12.2s-.04-.08-.12-.08c-.24.16.04.4.16.36-.28.52-.48 1.16-.36 1.72-.28.28-.12.64-.24.96-.12.04-.04-.16-.16-.12-.04.16.08.2.16.28-.08.12-.28.08-.32.24h-.16v.08c.04.04.08.08.12.08 0-.04.04-.08.04-.16.08 0 .28-.12.32 0-.08.08 0 .24 0 .32-.08 0-.04-.12-.16-.08.04.16-.24.04-.2.2.08.08.16-.04.24.08-.16.64 0 1.04-.24 1.56.24.04-.04.28-.04.36.2.24 0 .32.08.52h-.2c-.08.2.2.04.2.16-.16.64-.24 1.32-.04 1.88-.08 0-.12.08-.16.12.08.04.12-.08.16 0 0 .12-.04.16-.16.16.16.2.16.84.04.88.28 1.2.28 2.32 1.08 3.16a3.48 3.48 0 0 0 2.4-1c0-.12-.08-.12-.04-.2.96-.84 1.36-1.88 2.04-2.76-.04-.12.12-.52.28-.6.04.08-.12.16.08.12 0-.64.36-1.2.6-1.76 0 .04.04.04.04.08-.04.08-.2.28-.08.36.08-.12.2-.16.08-.36.12-.04.24-.32.16-.4-.04.04-.12.24-.16.12 1.48-3.52 2.12-8.52.6-11.6-.88-1.4-1.88-2.68-3.72-3.08-.04.12-.28.04-.32.2.04.08.24 0 .24.08-.04.08-.16.08-.2.16.16.04 0 .32-.04.44-.12 0-.04-.2-.16-.2-.16.16.16.16.16.32-.08.08 0 .28-.2.24.04.12.08.32-.04.4 0-.08 0-.16-.04-.16-.16.24-.04.44-.2.68.2-.04-.08.28.16.28-.08.08-.2.08-.24.16 0 .24-.08.52-.24.68.12 0 .08.16.08.28-.12.04-.28.04-.28.2.08.04.16-.16.2 0-.24.52-.4.8-.36 1.28-.44.04.12.16-.2.32C-.88 53-.96 53-1 53c-.16.2.16.24.2.44-.28.16-.36.52-.44.84zm1.2-6.12v.08h.08c0-.04 0-.04.08-.04v-.08H0s0 .04-.04.04zm.2.04c.12.16.08-.16 0 0h0zm.24 0c0 .04-.04-.04 0 0h0zm-.24.4c0-.04.12-.2 0-.2-.04.04-.12.16 0 .2zm-.64.04c.08 0 .16 0 .16.04-.04.04-.08.08.04.08 0-.12.04-.32-.08-.32-.04.08-.08.12-.12.2zm.4.12c-.08-.12.16-.28-.04-.28-.04.12-.08.24.04.28zm-1.44 2.48c.28-1.04.44-1.72.8-2.64-.04 0-.08-.08-.12-.08-.2 1.04-.68 1.76-.68 2.72zM0 48.76c.08.16.12-.16 0 0h0zm-.68.6h.16c-.08-.2.04-.12.16-.2-.12-.2 0-.16.12-.24-.08 0-.04-.12-.2-.08-.12.12-.16.32-.24.52zm.6-.36c.2.08 0-.12 0 0h0zm-.76.2c.16.04 0-.12 0 0h0zm.72.12c.04.16.04-.2 0 0h0zm-.36.12c.04.04 0 0 0 0h0zm-.04.16c.08.28-.16.24-.28.2.2.2-.12.28-.04.4.2-.16.36-.28.56-.36-.32 0 .04-.28-.08-.36-.04.08-.08.12-.16.12zm-.2.04c-.16.16.24-.24 0 0h0zm.44.04c.04.2.04-.2 0 0h0zm4.8.12c.04 0-.04-.04 0 0h0zm-4.6.16c.04.2.04-.16 0 0h0zm-.84.08c.04 0 0-.04 0 0h0zm.48.12h.12c.04-.08.04-.12-.04-.12 0 .04-.04.08-.08.12zm-.36.28c-.04-.08.12-.2 0-.24-.04.04-.12.24 0 .24zm.08-.16v.08c.12.08.16-.16.04-.16 0 .04 0 .08-.04.08zm-.36.52c.08-.12.4-.08.4-.28-.2.08-.08.04-.32 0-.12.12-.04.12-.08.28zm-.12-.2c-.12.16.16-.12 0 0h0zm.04.4c.12-.08.4-.04.4-.2-.12-.12-.28.08-.4.2zm6.48 0c.08 0 .08.04.12.04 0-.08 0-.16-.12-.16V51zm-6.24.08h.12V51h-.12v.08zm-.32.16c.08.12.12.24-.08.28-.04.16.04.2.12.24 0-.12-.08-.12-.08-.16.08-.08.08.04.2.04.08-.04-.12-.12.04-.16.04 0 .04.08.04.16.24.04 0-.16.16-.28-.28.08-.2-.16-.16-.28-.16-.04-.08.2-.24.16zm.48.04c.08 0 .24.04.2-.12h-.2v.12zm-.88.24c.04-.04.12-.24 0-.24.04.08-.12.2 0 .24zm.88-.12c.04.2.04-.16 0 0h0zm6.4.2c-.04-.08-.16-.32-.2-.2.12.04 0 .24.2.2zm-7.36.28c0-.04.16-.32 0-.28.04.12-.16.24 0 .28zm1.12-.16c-.12.16.16-.12 0 0h0zm6.16.04c.04 0 .08.04.08.08.08 0 .12-.08.24-.12-.16-.04-.24-.08-.32.04zm-7.04.32c.16-.04.12-.24.2-.32-.2-.04-.12.2-.2.32zm.4-.24H-1v-.08h-.08v.08zm-.12.16h.12v-.12h-.12V52zm7.08.24c-.08-.08 0-.36-.16-.36-.04.08 0 .36.16.36zm-7.2-.24c.04.2.04-.2 0 0h0zm.4.04h.12v-.08h-.12v.08zM-2.2 53.8c.12-.56.4-1.44.4-1.8-.16.56-.44 1.2-.4 1.8zm1.24-1.68c-.16.24.12-.12 0 0h0zm-.32.12c0 .04-.04-.04 0 0h0zm.12 0c.04.04 0-.04 0 0h0zm.16.24c.04-.08.08-.12.08-.2-.08-.04-.2.16-.08.2zm-.68-.12c-.12.16.16-.12 0 0h0zm.24.12c0-.08.04-.04.12 0v-.16c-.12-.04-.24.12-.12.16zm7.48.48c0-.28 0-.52-.16-.64 0 .28-.08.6.16.64zm-6.96-.44c.04.04 0-.04 0 0h0zm-.88.2c.12.08.12-.24 0-.16v.16zm.4.12c.24-.04.2.12.16.24.32 0-.04-.52-.16-.24-.2.04-.04-.32-.24-.28v.28c.16 0 .2.2.24 0zm.4-.24c.04.04-.04 0 0 0h0zm-.56.56v-.2h-.16c0 .08 0 .2.16.2zm-.36-.08c.08.2.08-.16 0 0h0zm7.96 0c.04.04 0 0 0 0h0zm.2 0c.04.04 0 0 0 0h0zm-8 .16c.12.2.04-.16 0 0h0zm.28 0c-.08.04 0 .04 0 0h.08c0 .04-.04.08-.04.16.08-.04.32-.16.2-.2 0 .04-.08.04-.16.04 0-.08-.08-.04-.08 0zm7.24 0c.08.16.12-.2 0 0h0zm.44.92c.24-.16 0-.68-.08-.92-.24.28.16.64.08.92zm-7.24-.84c-.08.04 0 .08 0 0 .04 0 0-.04 0 0zm-.96.12c.12-.04-.12.12.04.12.08-.16.08.12.16.12.08-.08-.08-.2.04-.2.04.04.16.04.28.04v-.12c-.16.04-.2.04-.28-.08-.04.2-.2 0-.24.12zm7.88.28c-.04-.12.04-.32-.12-.32.04.12.04.24.12.32zm-7.64-.04v.08c.12.08.12-.16.04-.12 0 0 0 .04-.04.04zm8.2.08c0-.08-.04-.12-.08-.12 0 .04-.04.16.08.12zm-8.08.12c.08.16.08-.2 0 0h0zm.2 0c-.12.16.16-.12 0 0h0zm-.52.28c.08 0 .12 0 .16.04-.04-.2-.08-.24-.12-.32-.08.12-.08.08-.04.28zm-.32-.04c-.16 0-.16.36-.12.4.08-.16.16-.16.12-.4.04-.08.24-.04.24-.2-.16.08-.2.04-.32.08.04 0 .04.08.08.12zm7.84.12c0-.12 0-.2-.08-.24 0 .08-.08.28.08.24zm.36-.2c0 .04-.04 0 0 0h0zm-7.64.2c.12.04.2-.16.08-.2 0 .12-.12.08-.08.2zm.28-.12c.08.16.08-.2 0 0h0zm7.44.76c-.08-.04.08-.6-.08-.68-.08.24-.08.76.08.68zm.2-.44c.12.04.04.28-.04.48.24.08.08.72.08.96.12-.04.28 0 .28-.16-.08 0-.12.08-.12 0 .08-.64.04-.92-.16-1.52 0 .08-.16.2-.04.24zm-8.12 0c-.08 0-.08-.04-.12-.04-.04.08-.16.36.04.36-.12-.24.32-.12.44-.32-.16-.04-.28.16-.36 0 .08-.08.16.08.2-.08-.08 0-.2-.16-.24 0 .04 0 .04.04.04.08zm.12.28c.2.04.16.12.08.28.16.04.08-.12.2-.12.04 0 .04.04.08.04-.04-.16-.28-.44-.36-.2zm7.32-.04c.08.2.08-.2 0 0h0zm-7.76.04c0 .04-.04 0 0 0h0zm-.4.88h-.04c-.04.32-.12.6-.2.92.2-.2.28-.68.24-.92.12-.2.12-.52.2-.76-.2.12-.2.6-.2.76zm.64-.52c.04.16.16-.04.24-.12h-.16c.04-.12-.12-.08-.2-.08 0 .08-.08.12-.08.24.08 0 .12-.04.2-.04zm7.72 3.2c.12-1.08.48-2.16.2-3.28.08 1.36-.32 2.16-.2 3.28zm-7.48-3.04h.08v-.08h-.08v.08zm-.4 0c.2.12.08.36.2.44-.08-.2.2-.36.04-.48 0 .12-.16.04-.24.04zm.4.4c.04-.12.04-.28 0-.32-.04.08-.16.28 0 .32zm7.28-.24h.12v-.08h-.12v.08zm-7.88.16h.12v-.12h-.12v.12zm-.16.08c.08 0 .12-.04.12-.08-.08 0-.16-.04-.12.08zm.28.04c-.04 0-.04-.04-.12-.04 0 .2-.04.4 0 .64-.12-.04-.2 0-.16.12.04 0 .08.04.12.04.08-.12.12-.32.2-.48-.08-.12-.12-.12-.04-.28.04.04.12.08.12 0-.04-.04-.04-.12-.12-.08v.08zm.44.12c.04.16.04-.2 0 0h0zm.24.08c0 .04-.04-.04 0 0h0zm-.48.04c.04.16.08-.16 0 0h0zm-.48.04c.04.2.04-.16 0 0h0zm6.84 8.16c.12-.04.12-.16.2-.24-.12.04-.16.12-.2-.04.16-.08.52-.36.2-.36.08-.04.16-.12.24-.16-.12-.16.2-.4 0-.52.08-.04.2-.08.24-.2-.16-.04.04-.12.04-.2-.16.04-.16-.08-.2-.12.12-.04.16.04.24.08-.04-.2-.04-.36.2-.32-.12-.44.24-.64.24-1.16.04 0 .04.04.12.04.04-.12-.08-.12-.08-.24.08 0 .2.04.2-.04-.08-.04-.12-.08-.12-.16.12-.24.2-.44.36-.72-.16-.08 0 .24-.2.16.08-.12 0-.08 0-.2.2 0 .36-.28.24-.4 0 .04-.16.16-.12.08-.04-.12.32-.12.12-.24-.08-.24.2-.08.16-.24-.08-.04-.12.08-.16 0 .12-.56.24-.68.12-1.12.16 0 .16-.36.04-.4.28-.2 0-.68.28-.96-.04-.24-.2-.28-.04-.48-.08-.08-.16.04-.24.08.08.32-.04.48-.08.76.04 0 .12 0 .12.04-.32 1.28-.56 2.52-.84 4-.28.08-.32.36-.24.56-.24 0-.16.32-.24.44.12.04.12-.04.16.04-.04.16-.24-.08-.28.04.04.16-.12.24 0 .36-.32.16-.24.72-.32 1.04-.12 0 0-.2-.16-.16-.16.36 0 .92-.44.96.16.12-.12.32 0 .4.16-.04.24-.08.32-.2-.08 0-.12-.04-.12-.08.12 0 .24 0 .24-.12zm-6.28-8.08c.04.16.04-.2 0 0h0zm-.24.24c.04.16.04-.2 0 0h0zm.24.32c0-.04 0-.04.04-.04 0-.08 0-.12-.08-.12 0 .08 0 .16.04.16zm-.72-.04c.2.04 0-.16 0 0h0zm.2.08c-.08.16-.16.48 0 .64 0-.16.08-.24.04-.44.16.04.2.08.28-.08-.16 0-.32.12-.32-.12.12.08.12-.16.04-.12-.04.04-.04.08-.04.12zm7.96-.08c.16.16.08-.16 0 0h0zm-8.32.2c0-.04 0-.08.08-.08-.04-.04-.04-.08-.12-.08 0 .04 0 .12.04.16zm.2.08c0-.08.04-.16-.04-.2-.08.08-.08.2.04.2zm.6-.08c-.2.2.28.04 0 0h0zm-.88.6c-.04-.2.2-.48 0-.52.04.2-.2.44 0 .52zm8.4-.48c-.12.16.16-.12 0 0h0zm-7.44.04c.08.16.12-.16 0 0h0zm-.48.64c.24-.04.08-.48.24-.56-.28.08-.16.28-.24.56zm.32-.52c.08.2.08-.2 0 0h0zm-.64.32c0-.04.08-.24 0-.24 0 .08-.16.2 0 .24zm.28.28c-.12-.16 0-.32-.2-.4.08.08-.04.44.2.4zm.28-.28c.08-.04.24 0 .28-.08-.08-.04-.24-.12-.28.08zm7.64-.04c0 .04-.04-.04 0 0h0zm-8.4.28c0-.08 0-.16-.04-.2-.08.08-.08.2.04.2zm8.4 0c0-.08 0-.16-.04-.2-.08.08-.08.2.04.2zm-7.68.12c.12.04.24-.28.04-.24 0 .08-.08.08-.04.24zm-.44.16c.12-.04.28-.04.28-.16-.2.04-.24.04-.32-.12-.12.12.08.12.04.28zm-.4-.12c.08.2.08-.2 0 0h0zm8.36.12c.16.04.2-.16.04-.16 0 .08 0 .12-.04.16zm-8.16 0h.12v-.08h-.12v.08zm.52-.04c-.12.16.16-.12 0 0h0zm.2.04h.12v-.08h-.12v.08zm-.36.12c-.04.04-.04.12.04.12.04-.04.08-.24-.04-.12-.12-.16-.16.12-.32.04.12.2.04.4-.12.44.2.16.04.36.04.56.16 0 .12-.12.28-.04-.12-.16.16-.2-.04-.28 0 .04 0 .08-.04.08-.04-.04-.04-.04-.04-.08.04-.16.04-.16 0-.28 0 0 .04.04.12.04.04-.16-.08-.12-.08-.2.08-.08.04-.28.2-.28zm.36.04c.08.16.12-.2 0 0h0zm7.4 0c.2.04 0-.16 0 0h0zm.04.44c-.16-.08.16-.32 0-.4-.04.08-.16.52 0 .4zm-8.36-.24c-.08 0-.16.04-.12.12.08.04.16-.04.12-.12.08-.04 0-.08 0 0zm.56.04c.16.04 0-.16 0 0h0zm.12.08h.12v-.08h-.12v.08zm7.84 1.12c.16-.36.12-.72.28-1.04-.08-.04-.08-.08-.16-.12.04.28-.32.88-.12 1.16zm-7.96-1c.08 0 .2.08.24-.04-.16 0-.2-.12-.24.04zm-.72.28c.12.04.2-.32.04-.28.08.16-.04.12-.04.28zm8.4-.08h.08v-.12h-.08v.12zm-7.56.16c-.04-.08.16-.16 0-.16 0 0-.12.16 0 .16zm.16-.12c.04.2.04-.2 0 0h0zm7.4.08c-.24.04.04.28 0 0 .04-.04-.04-.04 0 0zm-8.24.16c-.12.16.16-.12 0 0h0zm-.16.08c0 .04-.04 0 0 0h0zm8.28 0c.04.04 0 0 0 0h0zm-7.88.24c-.08-.08-.04 0-.16 0 .16.2-.08.24.04.44-.12.08-.08.2-.2.4.04 0 .04.04.04.08.08-.12.32-.04.4-.2-.08-.12-.2.12-.24-.04.08-.08 0-.12 0-.24h.08c.04.08.08 0 0 0 .08-.2-.04-.28.04-.44.08 0 .04.08.08.16.12-.04.16-.28.32-.12.04-.16-.12-.16-.2-.24.04.2-.16.12-.2.2zm-.48-.08c.04.04 0-.04 0 0h0zm.96 0c.04.04 0-.04 0 0h0zm-.76.04c.04.04 0-.04 0 0h0zm8.04.32c.16 0 .12-.24.08-.36-.04.12-.08.24-.08.36zm-8.28-.24c-.12.16.16-.12 0 0h0zm-.04.2c.04.2.04-.2 0 0h0zm.28.04c-.16-.12-.16.2 0 0h0zm8.32.36c.12-.04.08.08.2.08-.04-.28-.04-.28.04-.48h-.2c.04.24 0 .2-.04.4zm-7.92-.28c.12.16.08-.2 0 0h0zm7.56.16c.08 0 .08.04.12.08 0-.08 0-.2-.12-.16v.08zm-8.24.08c-.12.16.16-.12 0 0h0zm.64 0s-.04-.04 0 0h0zm-.48.08c0 .04-.04-.04 0 0h0zm.64 0c.08.2.08-.2 0 0h0zm7.44.2c0-.12.16-.2-.04-.2 0 .08 0 .16.04.2zm-.04 1.2c.12-.12.24-.28.16-.48.28-.12.28-.52.36-.84-.04 0-.04-.04-.12-.04-.16.4-.44.92-.4 1.36zm-7.4-1.24c.08.16.12-.2 0 0h0zm8.48 0c.16.04 0-.16 0 0h0zm-9.12.04c-.12.16.16-.12 0 0h0zm.56.28h.08v-.2h-.08v.2zm7.44-.16c.04.04-.04 0 0 0h0zm-7.88.08c.2.04 0-.16 0 0h0zm.24.12c.16 0 .2-.2 0-.2v.2zm-.28.04H-3c0-.08-.08-.08-.16-.08v.08zm.24.16c.12 0 .28 0 .28-.16-.08.08-.32 0-.28.16zm-.44.16c.2 0 .32-.08.36-.2-.12.08-.32.04-.36.2zm.6.12c.16.04 0-.12 0 0h0zm7.28 0c.04.04-.04 0 0 0h0zm-8.08.16c.2.04.04-.16 0 0h0zm8.04.04h-.04c0 .04-.04.04-.08.04v.12c.12 0 .12-.08.12-.16.12 0-.04-.2 0 0zm-7.64.24c-.04-.16.12-.12.08-.28-.16-.08-.2.24-.08.28zm.68-.24c.04.2.04-.2 0 0h0zm-.48.08c.2.08 0-.12 0 0h0zm-.4.08c.08.16.08-.2 0 0h0zm-.12.08c0 .04-.04-.04 0 0h0zm.48.2c0-.08.12-.04.12-.16-.12-.04-.28.12-.12.16zM4.2 63c.32-.36.28-1.04.64-1.44-.04-.08-.08 0-.16-.12-.16.52-.48 1.08-.48 1.56zm-7.04-1.4h.12v-.12h-.12v.12zm7.16-.04c.04 0 0-.04 0 0h0zm-7.56.28c0-.08.16-.2.04-.24 0 .08-.2.2-.04.24zm7.36.32c.12-.12.24-.4.12-.48 0 .2-.2.4-.12.48zm-7.48.04c.12 0 .16-.12.2-.24-.08 0-.04-.08-.08-.08-.04.12-.04.16-.12.32zm.6-.08c.04-.12-.2-.2-.2-.08.08 0 .04.12.2.08zm-.68-.04c.04.16.12-.2 0 0h0zm.28.48c.12.04.28-.08.16-.16-.04.08-.16.04-.16.16zm.28-.12c.08.2.08-.16 0 0h0zm-.48.16c.08.16.12-.2 0 0h0zm-.12.04c0 .04-.04 0 0 0h0zm0 .16c.08.16.04-.16 0 0h0zm.16.04c-.04.28.04-.2 0 0h0zm.16.08c.12.04.08-.08.16-.12-.12 0-.16.04-.16.12zm-.4.16c.08.2.08-.2 0 0h0zm.32.4c-.16-.08.12-.36-.08-.44-.04.12-.12.56.08.44zm.32-.4c.04.2.04-.2 0 0h0zm6.52.28c-.16.08.16.16 0 0 .08 0 .24-.2.12-.28 0 .16-.12.16-.12.28zm-6.8-.12v.08c.12.08.12-.16.04-.16 0 .04 0 .08-.04.08zm7 .52c-.04.04-.08.08-.08.12.08.04.08-.04.08-.12.04-.04.16-.2.04-.24.04.12-.08.08-.04.24zm-6.64.08c-.04-.08 0-.24-.12-.28.08.12-.12.28.12.28zm6.36-.24c.04.2.04-.2 0 0h0zm-6.68.16h.08v-.12h-.08v.12zm6.52.08c.2.04 0-.12 0 0h0zm-6.52.04c.04.04-.04 0 0 0h0zm-.2.08c.08.16.08-.2 0 0h0zm.4.24c.04.16.04-.2 0 0h0zm-.48.04v.08h.08c0-.04 0-.04.04-.04v-.08h-.08s0 .04-.04.04zm.12.2c.08.16.08-.2 0 0h0zm.32.08c0 .04-.04-.04 0 0h0zm7 .08c0 .04-.04 0 0 0h0zm-.24.24c.16.04.16-.16.04-.16 0 .04-.08.08-.04.16zm-6.68-.08c-.12.16.16-.12 0 0h0zm-.48.16h.08v-.12h-.08v.12zm.4 0c.04.16.04-.2 0 0h0zm-.44.24c.12.04.2-.16.08-.2.08.16-.16.04-.08.2zm7.04-.12c.04.04 0 0 0 0h0zm-6.56.2c0 .04-.04-.04 0 0h0zm6.44 0c.16.04 0-.16 0 0h0zm-6.88.04c.2.04 0-.12 0 0h0zm6.64.2c0-.12.2-.04.16-.2-.08 0-.08-.04-.16-.04-.04.04-.12.24 0 .24zm-6.2-.16c.12.16.08-.16 0 0h0zm-.44.12c.04.2.04-.2 0 0h0zm.32.12c.08.2.08-.16 0 0h0zm-.28.24c.04.04 0 0 0 0h0zm6.16.12c.04.04.16 0 .24-.04-.08-.08-.24-.08-.24.04zm-6.04.36c.04-.04 0-.2-.08-.28-.04.04 0 .24.08.28zm6.08 0c.04.2.04-.16 0 0h0zm-6.08.12c.04.2.04-.2 0 0h0zm.52.36c.12.04.12-.08.2-.12-.16-.04-.24 0-.2.12zm-.36 0c.04.04 0 0 0 0h0zm.16.08c.08.16.12-.2 0 0h0zm.28.88c.04.04 0 0 0 0h0zm3.24.68c.32-.16.8-.4.84-.68-.2.32-.84.28-.84.68zm1-.32c.04-.16.2-.2.24-.36h-.16c.08.2-.24.24-.08.36zm.32-.04c.2.04 0-.16 0 0h0zm12.16-32.88h0s-.04-.04 0 0zm-.12.04c.04.04.16.08.16 0-.04.36-.72.52-.8.96-.16-.28.28-.44.32-.68.24.16.2-.16.32-.28zm.44.04h0c.08-.04 0-.04 0 0zm0 0v.08c-.04 0-.04-.08 0-.08zm-.68.16h0c.04 0 0-.04 0 0zm.2.28h0c.04.04 0-.04 0 0zm-.8.36c.04.04.08.08.08.16-.08.08-.24.08-.24.24.04.08.08 0 .16 0-.04.12-.16.12-.2.24-.12-.2.04-.44.2-.64zm-.36.24c.16.04-.04.2-.04.24-.12-.04.04-.16.04-.24zm.4.12h0c.04.04-.04-.04 0 0zm-.44.24c0 .04-.08.08-.08.12-.12 0 0-.16.08-.12zm.04.08c.08-.2.08.2 0 0h0zm-.52.2c0-.12.16-.04.16-.16.12.04 0 .16 0 .2-.08 0-.08-.04-.16-.04zm.44 0c-.04 0-.08.04-.08.08-.16-.04.04-.12.04-.16.04 0 .04.04.04.08zm-.44 0v.16c-.04-.04-.08-.08-.08-.16h.08zm-.08.2c.08.04 0 .08 0 .12-.08 0 0-.08 0-.12zm-.16.12c0 .08-.08.08-.08.16-.12-.04 0-.2.08-.16zm.2.08c-.12.12-.2.28-.4.32.12-.16.2-.28.4-.32zm-.52.08c.04-.2.04.2 0 0h0zm0 .16c-.04.08-.08.08-.2.08-.04-.16.12-.08.2-.08zm-.24.16c-.08.04-.08.08-.16 0 0-.04.04-.04.04-.08.08 0 .08.04.12.04v.04zm.24-.04c.12.16-.2.2-.24.36-.12-.16.2-.24.24-.36zm-.24.04h0c0 .08.04 0 0 0zm-.44.36h0c.04.04-.04-.04 0 0zm.28 0h0c.04.04 0-.04 0 0zm-.44.08c.12-.16.08.16 0 0h0zm.32.04h0c.04 0-.04-.04 0 0zm-.8.08h0c.04 0 0-.04 0 0zm.8-.08c-.04.08-.08.12-.16.12 0-.08.04-.12.16-.12zm-.16.12h0c-.08.04 0 .04 0 0zm-.4.08h0c.04.04 0 0 0 0zm-.4.24c-.04-.08.16 0 .24-.04-.04.12-.16.12-.24.2 0-.04.04-.16 0-.16zm-.32.2c.2.04-.2.24.08.24-.04.08-.16 0-.16.08-.16-.12.04-.24.08-.32zm.24.24h0c.04.04 0-.04 0 0zm-.56.04c.08-.16.12.2 0 0h0zm-.08.24h0c.04-.04-.04-.04 0 0zm-.08.04s0-.04.08-.04c-.04.04-.04.08-.08.04zm0 0c0 .24-.2.2-.28.24-.12-.08.24-.12.28-.24zm-.72.44c.08.04 0 .08 0 .16-.08-.04 0-.08 0-.16zm.2.04h0c.04.04 0 0 0 0zm-.48.08c.08-.2.08.16 0 0h0zm0 .24c0-.08.12-.08.2-.08-.04.16-.08.08-.2.08zm0 0c.04.12-.12.08-.2.08.04-.08.08-.12.2-.08zm-.12.24c-.04.08-.12.08-.2.08 0-.08.08-.12.2-.08zm-.48.04c.16-.08.08.12.24.08-.04.16-.2.08-.32.04.04-.04.08-.08.08-.12zm.8.04c.12-.2.08.16 0 0h0zm-6.8.04h0c.04-.04-.04-.04 0 0zm0 0c0 .08-.08.04 0 0h0zm5.92.16c.12.08-.12.24-.28.24 0-.28.24-.08.28-.24zm.44.2c.12-.2.08.16 0 0h0zM7 40.96c.08 0 .04.08 0 0h0zm.96.12c.08-.16.08.2 0 0h0zm-.88.12h.08c0 .08-.08.08-.16.08.04-.04.08-.04.08-.08zm-.6.44c.12-.04.08.04.12.12h-.16c.04-.04.04-.08.04-.12zm.28.16h0c.04.04 0 0 0 0zm-.16.12c0-.16.16.04 0 0h0zm-.6.04c.16 0 .12.16.16.24h-.2c.08-.12.08-.08.04-.24zm.2 0h.08c.04.12-.04.08-.12.08 0-.04.04-.04.04-.08zm-.32.2c.04-.2.04.2 0 0h0zm-.2.2h0c.04-.04 0-.08 0 0zm0 0h0c-.08 0 0 .04 0 0zm.08.04h.12v.08h-.12v-.08zm-.24.12c0-.04.08-.04.16-.04v.2c-.08 0-.08-.08-.04-.16h-.12zm0 0v.2c-.16-.04-.08-.04-.24 0-.08.16.12.24 0 .28-.2.08.08-.24-.08-.28-.04-.16.24 0 .2-.2.04.04.08.08.12 0zm-4.68.8c-.16-.08.04-.28 0 0h0zm-2 10.88c.04 0 .04-.04.08-.08-.08 0-.04.04-.08.08zm-.76.76c-.08 0-.08.04-.08.12.04-.04.08-.08.08-.12zm.28 1.24c.16-.12-.12.16 0 0h0zm-.28 1.64c.12-.16.08.16 0 0h0zm7.96 1.32s-.04.04-.04 0h.04zm-.4.88c.08.04 0 .12 0 .16-.12-.04-.04-.08 0-.16zM4.6 63.08h0c.04.04 0-.04 0 0zm-.32.48c.08.04.08.08.04.16h-.08v-.12c.04 0 .04 0 .04-.04zm.04.56c-.04 0-.04-.08 0-.08v.08zm-.32.24h0c0 .04-.04 0 0 0zM20.4 25.4c.48.88.16 1.88-.72 2.16-.56-.2-1.08-.4-1.2-1.04.56-.4.96-1.24 1.92-1.12zm1 12.12v.08c-.24.12-.48.24-.68.4.2.04.56-.16.68-.4.72-.12 1.2-.6 1.76-.96.56-.16.96-.72 1.64-.92.72-.64 1.48-1 2.36-1.52-.04.16-.2.2-.12.4-.56.08-1.04.48-1.24.8-1.52.72-3.04 1.88-4.56 2.8-.08 0-.12 0-.12.08.08 0 .12 0 .12-.08.64-.36 1.44-.68 1.8-1.04.84-.4 1.8-1.16 2.76-1.76.28.04.24-.24.48-.2.04.16-.12.12-.08.28-.2 0-.4 0-.4.2-.04 0-.04.04-.04.04-.08.04-.12.08-.2.12 0 .08.04.16.16.12-.04.16-.12.08-.24.08.04.2-.04.28-.16.4-.12 0-.16-.04-.2-.16 0-.12.08-.12.16-.12-.36-.2-.52.6-.96.64.04.12.2.12.08.28-.12 0-.28.04-.24-.16-.08 0-.04.16-.16.12-.04.16.24 0 .16.2-.2.12-.16-.12-.4-.08-.08.2.12.12.08.24-.16.04-.12-.12-.28-.08-.08.16.16.04.12.16-.36.32-1.04.88-1.76 1.24-.08 0-.04.12-.04.2-.28 0-.4.2-.44.4-2 1.48-5.72 2-6.52-1.04-.04-.76.04-1.08.2-1.88.68-1.68.84-3.6 2.28-4.68.76.08 1.16.56 1.32 1.28-.12.04-.24.08-.4.08-.8 1.36-1.52 3.12-1.76 4.72-.28.36-.2.8-.12 1.36 1.4.2 3.28-.72 4.52-1.4 0-.08-.08-.12-.04-.2.24-.04.2-.12.48-.04zm4.04-1.64c0 .04-.04-.04 0 0h0zm-1.44.8c-.12.16.16-.12 0 0h0zm-2.84.92c-.12.16.16-.12 0 0h0zm2.16 0c-.12.16.16-.12 0 0h0zm-2.52.84c.16 0 .24-.04.2-.16-.12 0-.16.08-.2.16zm6.48-4.24c.12 0 .2 0 .2-.08h.12c0-.08-.04-.12-.12-.12.12-.16.32-.24.4-.48-1.76.8-3.24 2.16-4.92 2.88-.12.04.12.08.12.16-.56.16-.8.64-1.36.76 0-.04 0-.08-.04-.08 2.2-1.56 4.4-3.08 6.96-4.24-.04.12-.28.12-.32.24.08.16.16-.12.32-.04-.44.4-.72.96-1.4 1.16 0-.08.08-.08.04-.16zm.64-.68c.08 0 .2 0 .2-.12-.08 0-.2 0-.2.12zm-.16.4c.08.2.08-.2 0 0h0zm-6 3.32c.2.04.04-.16 0 0h0zm5.72-3.12c-.08 0-.16 0-.2.08h-.12c.04-.12.16-.12.24-.2 0 .08.08.04.08.12zm-.32.6c-.04.08-.12.08-.2.12 0-.12.08-.12.2-.12zm-.76.44c.04-.2.24-.28.52-.28-.12.16-.32.24-.52.28zm-.12.04c0-.04.04-.04.12-.04-.04.04-.04.04-.12.04zm-.12.4c0-.16.2.04 0 0h0zm-.36.08h.12v.16c-.08 0-.2 0-.16-.12.04 0 .04 0 .04-.04zm-.76.72h0c.04.04-.04 0 0 0zm-.16.12c.04-.12.24-.04.24 0-.08.12-.12.04-.24 0zm-1.8.04c.04 0 .04 0 .04.04-.04 0-.04 0-.04-.04zm1.68 0c.24.08-.12.4-.24.28.04-.12.2-.12.24-.28zm-1.64.04c.04 0 .04 0 .04.04-.04 0-.04 0-.04-.04zm-1.64.64h.16c.04.08-.16.16 0 .16-.08.16-.16-.08-.16-.16zm.24.08h0c-.08.04 0 .04 0 0zm-.32.2c0-.08.08-.04 0 0h0z" fill="#ff847c"/></svg>